# xmcd
#
# Track frame offsets:
#	150
#	13882
#	26339
#	40400
#	50889
#	62694
#	72492
#	83945
#	94121
#	105989
#	114786
#	125574
#	136258
#	145714
#	155862
#	165973
#	176305
#	187527
#	198109
#	211246
#	221046
#	231324
#	242638
#	251537
#
# Disc length: 3483 seconds
#
# Revision: 1
# Processed by: cddbd v1.5.2PL0 Copyright (c) Steve Scherf et al.
# Submitted via: audiograbber 1.83.01
#
DISCID=470d9918
DTITLE=The Greatest Country Music Recordings Of All Time - Record 73 and 74
DYEAR=1900
DGENRE=
TTITLE0=Hardrock Gunter - I'll Give 'Em Rhythm
TTITLE1=Hank Penny - Open The Door, Richard
TTITLE2=Moon Mullican - Well, Oh, Well
TTITLE3=Jack Turner - Hound Dog
TTITLE4=Bill Haley - Crazy, Man, Crazy
TTITLE5=Carl Smith - Go, Boy, Go
TTITLE6=Marty Robbins - Maybelline
TTITLE7=Carl Perkins - Blue Suede Shoes
TTITLE8=Gene Vincent - Be-Bop-A-Lula
TTITLE9=Johnny Burnette - Tear It Up
TTITLE10=Charlie Feathers - One Hand Loose
TTITLE11=Thumper Jones (George Jones) - How Come It
TTITLE12=Janis Martin - My Boy Elvis
TTITLE13=Brenda Lee - Bigelow -2006
TTITLE14=Johnny Cash - Get Rhythm
TTITLE15=Dale Hawkins - Susie-Q
TTITLE16=Conway Twitty - I Need Your Lovin'
TTITLE17=Everly Brothers - Bye Bye Love
TTITLE18=Jerry Lee Lewis - Whole Lot Of Shakin' Going On
TTITLE19=Mickey Gilley - Call Me Shorty
TTITLE20=The Crickets - That'll Be The Day
TTITLE21=Buddy Holly - Peggy Sue
TTITLE22=Eddie Cochran - Summertime Blues
TTITLE23=Wanda Jackson - Let's Have A Party
EXTD=
EXTT0=
EXTT1=
EXTT2=
EXTT3=
EXTT4=
EXTT5=
EXTT6=
EXTT7=
EXTT8=
EXTT9=
EXTT10=
EXTT11=
EXTT12=
EXTT13=
EXTT14=
EXTT15=
EXTT16=
EXTT17=
EXTT18=
EXTT19=
EXTT20=
EXTT21=
EXTT22=
EXTT23=
PLAYORDER=
